<?xml version="1.0" standalone="no"?>
<!DOCTYPE svg PUBLIC "-//W3C//DTD SVG 20010904//EN"
 "http://www.w3.org/TR/2001/REC-SVG-20010904/DTD/svg10.dtd">
<svg version="1.0" xmlns="http://www.w3.org/2000/svg"
 width="2048.000000pt" height="2048.000000pt" viewBox="0 0 2048.000000 2048.000000"
 preserveAspectRatio="xMidYMid meet">
<metadata>
Created by potrace 1.14, written by Peter Selinger 2001-2017
</metadata>
<g transform="translate(0.000000,2048.000000) scale(0.100000,-0.100000)"
fill="#000000" stroke="none">
<path d="M11270 19495 c-19 -7 -53 -14 -75 -15 -22 0 -49 -7 -59 -15 -11 -8
-29 -15 -41 -15 -12 0 -30 -7 -41 -15 -10 -8 -29 -15 -40 -15 -12 0 -27 -7
-34 -15 -7 -8 -20 -15 -30 -15 -10 0 -23 -7 -30 -15 -7 -8 -20 -15 -29 -15 -9
0 -22 -5 -28 -11 -13 -13 -30 -23 -100 -59 -26 -14 -54 -31 -61 -37 -7 -7 -19
-13 -26 -13 -8 0 -19 -7 -26 -15 -7 -8 -20 -15 -30 -15 -10 0 -23 -7 -30 -15
-7 -8 -21 -15 -31 -15 -11 0 -19 -4 -19 -10 0 -5 -12 -13 -27 -16 -15 -4 -34
-13 -41 -21 -7 -7 -19 -13 -27 -13 -7 0 -26 -7 -41 -15 -16 -8 -37 -15 -46
-15 -9 0 -19 -4 -22 -9 -4 -5 -29 -12 -56 -16 -27 -4 -52 -11 -56 -16 -7 -11
-321 -12 -328 0 -3 4 -25 11 -49 14 -23 3 -56 13 -72 21 -17 9 -40 16 -53 16
-12 0 -31 6 -42 13 -17 10 -22 9 -30 -3 -15 -23 -12 -76 5 -90 8 -7 15 -20 15
-28 0 -18 107 -122 126 -122 6 0 17 -7 24 -15 7 -8 22 -15 35 -15 12 0 29 -8
38 -18 16 -17 15 -20 -16 -50 -29 -28 -40 -32 -88 -32 -30 0 -60 5 -65 10 -6
6 -35 13 -65 17 -30 3 -63 12 -74 19 -11 8 -35 14 -55 14 -19 1 -46 7 -60 15
-27 15 -68 19 -94 9 -13 -5 -15 -14 -10 -43 6 -33 40 -109 53 -121 4 -3 17
-21 31 -40 13 -19 33 -43 45 -52 53 -46 115 -88 130 -88 9 0 23 -7 31 -15 9
-8 30 -15 47 -15 36 0 147 -31 147 -42 0 -4 -20 -21 -45 -39 -25 -18 -45 -36
-45 -41 0 -4 -8 -8 -19 -8 -10 0 -24 -7 -31 -15 -7 -8 -21 -15 -31 -15 -10 0
-20 -4 -23 -9 -3 -5 -40 -26 -83 -47 -82 -41 -203 -150 -203 -183 0 -9 -5 -22
-11 -28 -6 -6 -9 -23 -7 -39 l3 -29 113 -3 112 -3 0 -30 c0 -29 -8 -45 -42
-77 -10 -9 -18 -20 -18 -24 0 -6 -52 -84 -117 -177 -16 -21 -35 -49 -43 -61
-8 -12 -21 -28 -27 -36 -7 -7 -13 -17 -13 -22 0 -5 -9 -20 -21 -33 -25 -29
-109 -150 -127 -185 -7 -13 -16 -24 -20 -24 -4 0 -16 -17 -27 -37 -11 -20 -32
-51 -47 -67 -16 -17 -28 -35 -28 -41 0 -6 -13 -25 -29 -42 -15 -17 -31 -37
-35 -45 -17 -33 -33 -56 -58 -83 -16 -17 -28 -34 -28 -38 0 -5 -13 -26 -30
-47 -16 -21 -30 -42 -30 -47 0 -4 -12 -21 -27 -38 -26 -27 -42 -50 -59 -83 -4
-8 -20 -28 -35 -45 -16 -17 -29 -36 -29 -42 0 -6 -10 -21 -23 -35 -12 -14 -34
-43 -47 -65 -13 -22 -28 -43 -32 -46 -17 -12 -48 -80 -48 -106 0 -16 -7 -37
-15 -47 -8 -11 -15 -32 -15 -47 0 -15 -7 -40 -15 -55 -8 -16 -15 -41 -15 -55
0 -15 -7 -40 -15 -55 -8 -16 -15 -39 -15 -50 0 -12 -7 -35 -15 -50 -8 -16 -15
-43 -15 -59 0 -17 -4 -35 -9 -40 -5 -6 -14 -30 -19 -55 -17 -70 -34 -133 -42
-155 -11 -28 -30 -102 -39 -153 -5 -24 -13 -48 -19 -54 -7 -7 -12 -26 -12 -43
0 -16 -7 -43 -15 -59 -8 -15 -15 -40 -15 -55 0 -15 -7 -36 -15 -47 -8 -10 -15
-34 -15 -52 0 -19 -6 -46 -14 -60 -15 -30 -33 -93 -45 -160 -4 -24 -13 -48
-19 -54 -7 -7 -12 -28 -12 -48 0 -19 -7 -44 -15 -54 -8 -11 -15 -34 -15 -51 0
-17 -7 -40 -15 -51 -8 -10 -15 -32 -15 -49 0 -16 -7 -41 -15 -55 -8 -14 -14
-39 -15 -56 0 -16 -7 -39 -15 -50 -8 -10 -15 -35 -15 -54 0 -19 -7 -44 -15
-54 -8 -11 -15 -34 -15 -51 0 -17 -7 -40 -15 -51 -8 -10 -15 -35 -15 -54 0
-19 -7 -44 -15 -54 -8 -11 -15 -34 -15 -51 0 -17 -7 -40 -15 -51 -8 -10 -15
-33 -15 -50 0 -16 -7 -39 -15 -50 -8 -10 -15 -35 -15 -54 0 -54 -43 -100 -100
-107 -25 -3 -57 -12 -72 -19 -15 -8 -42 -14 -61 -14 -18 0 -42 -7 -53 -15 -10
-8 -35 -15 -54 -15 -19 0 -46 -7 -60 -15 -14 -8 -41 -15 -60 -15 -19 0 -44 -7
-54 -15 -11 -8 -38 -15 -60 -15 -23 0 -50 -7 -60 -15 -11 -8 -34 -15 -52 -15
-17 0 -45 -7 -60 -15 -16 -8 -43 -15 -60 -15 -18 0 -45 -7 -60 -15 -16 -8 -43
-15 -60 -15 -18 0 -45 -7 -60 -15 -16 -8 -43 -15 -60 -15 -18 0 -45 -7 -60
-15 -16 -8 -46 -15 -66 -15 -20 0 -39 -4 -42 -9 -4 -5 -30 -12 -59 -16 -28 -4
-56 -11 -62 -15 -5 -4 -32 -11 -59 -14 -27 -4 -54 -10 -60 -14 -11 -7 -85 -24
-186 -43 -30 -5 -59 -14 -65 -18 -5 -5 -35 -11 -65 -15 -30 -4 -59 -11 -65
-15 -5 -5 -34 -11 -64 -14 -30 -4 -59 -11 -65 -17 -5 -5 -27 -10 -48 -10 -20
0 -57 -6 -80 -14 -24 -8 -75 -17 -114 -20 -39 -3 -84 -10 -100 -16 -44 -15
-670 -6 -756 11 -38 7 -68 17 -68 21 0 4 -7 8 -15 8 -18 0 -92 38 -125 65 -40
32 -129 123 -215 220 -139 157 -244 255 -273 255 -11 0 -25 7 -32 15 -16 20
-99 20 -147 0 -19 -8 -46 -15 -58 -15 -12 0 -28 -7 -35 -15 -7 -8 -20 -15 -29
-15 -9 0 -24 -8 -33 -17 -9 -10 -31 -32 -50 -50 -35 -33 -93 -137 -104 -188
-4 -16 -11 -35 -16 -42 -13 -16 -4 -247 12 -308 7 -27 19 -59 26 -70 8 -11 14
-27 14 -37 0 -10 5 -18 10 -18 6 0 10 -8 10 -18 0 -11 9 -29 20 -42 11 -13 20
-27 20 -32 0 -8 29 -51 82 -123 25 -33 175 -185 223 -225 17 -14 41 -31 55
-38 14 -7 57 -30 95 -52 39 -21 79 -39 90 -39 12 -1 26 -6 32 -12 27 -27 249
-42 328 -22 64 16 159 72 247 146 12 9 24 17 28 17 4 0 33 25 66 57 32 31 82
72 109 91 28 19 60 46 72 59 12 12 26 23 31 23 5 0 22 12 38 26 16 14 41 30
57 36 15 5 27 14 27 19 0 5 8 9 19 9 10 0 24 7 31 15 7 8 20 15 29 15 10 0 26
7 37 15 10 8 28 15 40 15 11 0 29 7 40 15 10 8 35 15 54 15 19 0 46 7 60 15
14 8 41 15 60 15 19 0 46 7 60 15 14 8 43 14 66 15 22 0 49 7 60 15 10 8 37
15 59 15 22 0 51 7 65 15 14 8 43 15 65 15 22 0 49 7 59 15 11 8 36 15 57 15
20 0 50 7 65 15 16 8 43 15 60 15 17 0 48 7 67 15 20 8 52 15 71 15 19 0 37 4
41 9 3 6 27 13 53 16 26 3 54 10 62 14 9 5 40 12 70 16 30 4 60 11 66 16 6 5
33 12 60 15 27 4 54 10 59 14 6 4 35 10 65 14 30 4 59 11 65 15 5 5 32 11 59
15 27 3 54 10 60 15 6 4 35 11 65 14 29 4 58 10 65 15 6 5 35 12 65 15 30 4
59 11 65 17 5 5 28 10 51 10 22 0 53 7 69 15 15 8 44 15 63 15 19 0 49 6 66
14 18 8 56 17 86 20 30 3 59 10 65 16 5 5 16 10 23 10 18 0 17 -55 -2 -70 -8
-7 -15 -24 -15 -39 0 -14 -7 -35 -15 -45 -8 -11 -15 -28 -15 -39 0 -10 -7 -25
-15 -33 -8 -9 -15 -26 -15 -38 0 -13 -7 -29 -15 -36 -8 -7 -15 -21 -15 -30 0
-10 -7 -31 -15 -47 -8 -15 -28 -59 -46 -98 -27 -60 -153 -316 -198 -403 -8
-15 -18 -28 -23 -30 -4 -2 -8 -12 -8 -22 0 -9 -7 -23 -15 -30 -8 -7 -15 -18
-15 -26 0 -7 -7 -19 -15 -27 -8 -8 -24 -33 -37 -56 -28 -51 -36 -64 -71 -118
-15 -24 -27 -47 -27 -53 0 -5 -5 -10 -10 -10 -6 0 -15 -10 -20 -22 -12 -27
-29 -54 -50 -79 -32 -38 -40 -48 -40 -54 0 -4 -20 -33 -45 -65 -25 -32 -45
-61 -45 -64 0 -2 -13 -20 -30 -38 -31 -34 -57 -94 -45 -106 4 -4 55 -6 114 -4
99 3 109 1 136 -20 24 -19 40 -22 102 -21 53 1 79 5 92 17 10 9 25 16 33 16 9
0 21 7 28 15 7 8 21 15 32 15 10 0 21 6 24 14 3 8 13 17 22 20 25 9 64 33 71
43 3 5 35 31 71 58 73 55 326 305 380 375 48 62 46 60 85 105 19 22 35 43 35
48 0 4 8 15 19 26 10 10 23 27 29 37 18 33 25 6 13 -48 -7 -29 -16 -105 -21
-168 -5 -63 -13 -128 -19 -143 -6 -16 -11 -68 -11 -116 0 -53 -6 -106 -15
-131 -8 -23 -15 -74 -15 -112 0 -38 -7 -84 -15 -105 -8 -19 -15 -61 -15 -92
-1 -31 -7 -67 -15 -81 -8 -14 -14 -43 -15 -66 0 -22 -7 -49 -15 -60 -8 -10
-15 -35 -15 -54 0 -19 -7 -44 -15 -54 -8 -11 -15 -32 -15 -47 0 -14 -7 -32
-15 -39 -8 -7 -15 -23 -15 -37 0 -13 -7 -31 -15 -39 -8 -9 -15 -24 -15 -33 0
-10 -7 -24 -15 -31 -8 -7 -15 -20 -15 -30 0 -10 -7 -23 -15 -30 -8 -7 -15 -23
-15 -35 0 -12 -7 -28 -15 -35 -12 -10 -15 -28 -13 -64 3 -48 5 -51 31 -54 29
-4 73 27 162 110 37 35 75 50 75 29 0 -5 12 -16 26 -26 20 -13 28 -14 40 -5
11 10 15 8 20 -6 3 -11 12 -33 20 -51 19 -43 19 -283 -1 -338 -8 -22 -15 -60
-15 -85 0 -25 -7 -56 -15 -70 -8 -14 -14 -41 -15 -61 0 -19 -7 -44 -15 -55 -8
-10 -15 -33 -15 -50 0 -16 -7 -39 -15 -50 -8 -10 -15 -33 -15 -50 0 -17 -7
-37 -15 -44 -8 -7 -15 -25 -15 -39 0 -15 -7 -36 -15 -47 -8 -10 -15 -28 -15
-39 0 -11 -7 -29 -15 -39 -8 -11 -15 -30 -15 -42 0 -12 -7 -27 -15 -34 -8 -7
-15 -22 -15 -34 0 -12 -7 -31 -15 -42 -8 -10 -15 -29 -15 -40 0 -12 -7 -27
-15 -34 -8 -7 -15 -23 -15 -35 0 -12 -7 -28 -15 -35 -8 -7 -15 -20 -15 -29 0
-9 -7 -25 -15 -35 -8 -11 -15 -27 -15 -37 0 -9 -7 -22 -15 -29 -8 -7 -15 -21
-15 -32 0 -11 -7 -26 -15 -34 -8 -9 -15 -24 -15 -33 0 -10 -7 -24 -15 -31 -8
-7 -15 -20 -15 -30 0 -10 -7 -23 -15 -30 -8 -7 -15 -20 -15 -30 0 -10 -7 -23
-15 -30 -8 -7 -15 -20 -15 -30 0 -10 -7 -23 -15 -30 -8 -7 -15 -20 -15 -30 0
-10 -7 -23 -15 -30 -8 -7 -15 -20 -15 -30 0 -10 -7 -23 -15 -30 -8 -7 -15 -21
-15 -30 0 -10 -4 -20 -8 -22 -5 -1 -26 -39 -48 -83 -21 -44 -41 -82 -44 -85
-5 -5 -25 -42 -63 -115 -12 -22 -23 -42 -26 -45 -4 -3 -21 -34 -40 -70 -42
-81 -67 -127 -91 -165 -11 -16 -26 -43 -34 -60 -8 -16 -29 -52 -45 -80 -17
-27 -35 -59 -41 -70 -6 -11 -19 -33 -30 -50 -11 -16 -24 -40 -29 -52 -5 -11
-15 -24 -20 -28 -6 -3 -11 -15 -11 -26 0 -10 -5 -19 -11 -19 -5 0 -15 -13 -20
-30 -6 -16 -15 -30 -20 -30 -5 0 -9 -6 -9 -14 0 -7 -7 -19 -15 -26 -8 -7 -15
-20 -15 -30 0 -10 -7 -20 -15 -24 -8 -3 -15 -15 -15 -26 0 -11 -5 -20 -10 -20
-6 0 -15 -10 -20 -22 -6 -13 -19 -36 -30 -53 -11 -16 -24 -39 -30 -50 -6 -11
-19 -33 -30 -50 -11 -16 -23 -37 -27 -45 -4 -8 -25 -41 -47 -75 -23 -33 -50
-77 -61 -97 -11 -21 -23 -38 -27 -38 -3 0 -10 -10 -14 -22 -4 -13 -9 -25 -13
-28 -9 -8 -51 -69 -51 -75 0 -3 -12 -23 -27 -44 -16 -21 -35 -49 -43 -61 -8
-12 -21 -28 -27 -36 -7 -7 -13 -15 -13 -19 0 -4 -20 -33 -45 -65 -25 -32 -45
-62 -45 -67 0 -5 -9 -16 -20 -26 -11 -9 -34 -39 -51 -67 -17 -27 -34 -50 -39
-50 -4 0 -11 -8 -14 -17 -9 -25 -32 -64 -43 -72 -10 -8 -30 -39 -43 -68 -5
-13 -14 -23 -20 -23 -5 0 -10 -8 -10 -19 0 -10 -7 -24 -15 -31 -8 -7 -15 -18
-15 -25 0 -7 -7 -15 -15 -19 -8 -3 -15 -15 -15 -26 0 -11 -7 -23 -15 -26 -8
-4 -15 -14 -15 -24 0 -10 -7 -23 -15 -30 -8 -7 -15 -21 -15 -32 0 -10 -7 -21
-15 -24 -8 -4 -15 -14 -15 -24 0 -11 -4 -22 -10 -25 -5 -3 -22 -31 -36 -60
-14 -30 -29 -57 -35 -60 -5 -4 -9 -15 -9 -26 0 -10 -5 -19 -10 -19 -6 0 -15
-10 -21 -22 -17 -38 -86 -145 -105 -163 -5 -5 -26 -30 -46 -55 -20 -25 -87
-97 -150 -161 -189 -193 -288 -304 -288 -322 0 -3 -13 -21 -30 -39 -17 -18
-30 -36 -30 -41 0 -5 -13 -26 -30 -47 -16 -21 -30 -45 -30 -53 0 -8 -7 -17
-15 -21 -8 -3 -15 -15 -15 -26 0 -11 -7 -23 -15 -26 -8 -4 -15 -14 -15 -24 0
-10 -7 -23 -15 -30 -8 -7 -15 -21 -15 -31 0 -10 -5 -21 -11 -24 -5 -4 -14 -17
-20 -28 -9 -22 -15 -33 -37 -72 -7 -11 -16 -30 -21 -42 -6 -11 -15 -24 -20
-28 -6 -3 -11 -15 -11 -25 0 -10 -3 -20 -7 -22 -10 -4 -53 -65 -53 -74 0 -3
-13 -23 -30 -44 -16 -21 -30 -41 -30 -44 0 -7 -40 -54 -96 -112 -23 -24 -59
-65 -80 -91 -22 -26 -43 -53 -49 -59 -5 -6 -23 -28 -40 -49 -16 -20 -35 -42
-41 -49 -5 -6 -13 -19 -17 -29 -3 -9 -11 -17 -17 -17 -5 0 -10 -7 -10 -15 0
-9 -7 -18 -15 -21 -8 -4 -15 -10 -15 -15 0 -12 -42 -73 -52 -77 -5 -2 -8 -12
-8 -22 0 -11 -6 -23 -12 -27 -14 -9 -33 -37 -47 -70 -6 -11 -15 -24 -20 -28
-6 -3 -11 -14 -11 -25 0 -10 -7 -20 -15 -24 -8 -3 -15 -14 -15 -25 0 -11 -5
-23 -11 -26 -5 -4 -15 -17 -20 -28 -5 -12 -18 -35 -29 -52 -11 -16 -23 -37
-27 -45 -15 -34 -132 -180 -204 -255 -155 -163 -172 -181 -223 -239 -28 -32
-77 -86 -108 -120 -32 -33 -58 -63 -58 -67 0 -3 -9 -17 -20 -30 -11 -13 -23
-28 -27 -34 -5 -5 -23 -29 -41 -51 -17 -23 -32 -46 -32 -51 0 -5 -8 -16 -17
-25 -31 -29 -43 -47 -43 -63 0 -8 -5 -15 -10 -15 -6 0 -15 -10 -21 -22 -15
-34 -35 -68 -48 -81 -19 -19 -14 -121 7 -140 24 -22 99 -22 149 -1 71 30 108
49 118 59 6 6 33 29 60 50 59 47 122 111 173 174 20 25 49 58 64 73 15 15 28
32 28 37 0 6 4 11 8 11 5 0 24 21 43 47 18 26 40 54 49 63 8 8 37 44 64 80 27
36 54 70 61 75 6 6 23 28 37 50 14 22 42 58 62 80 20 22 36 44 36 48 0 8 11
23 41 55 8 9 31 39 50 66 19 27 44 61 57 74 12 14 32 42 44 61 12 20 25 38 29
41 4 3 28 34 54 70 26 36 52 70 59 75 6 6 28 36 50 68 21 31 42 57 47 57 5 0
9 5 9 11 0 5 27 46 60 89 33 43 60 81 60 84 0 3 13 20 30 38 16 18 30 37 30
43 0 6 13 24 28 41 16 16 45 55 66 86 21 32 41 58 46 58 4 0 10 8 14 17 7 23
24 48 59 87 15 17 27 35 27 41 0 6 12 23 28 40 29 32 48 60 58 87 3 10 10 18
14 18 5 0 22 21 38 48 16 26 39 58 51 71 11 13 21 28 21 33 0 5 6 15 13 22 6
8 19 24 27 36 8 12 31 44 50 70 20 27 49 69 65 94 16 25 33 46 37 46 4 0 8 6
8 13 0 8 9 25 21 38 19 22 100 138 124 177 6 10 22 33 38 53 15 20 27 42 27
47 0 6 6 15 13 19 14 9 32 37 47 71 5 12 14 22 20 22 5 0 10 7 10 15 0 8 4 15
9 15 10 0 34 38 47 73 3 9 10 17 15 17 5 0 14 10 19 23 13 29 33 60 43 68 5 4
14 16 20 27 18 32 391 586 398 592 4 3 17 24 29 48 12 23 26 42 31 42 5 0 9 6
9 13 0 7 13 31 30 53 16 21 30 43 30 48 0 4 14 25 30 46 17 21 30 40 30 43 0
3 14 26 30 50 17 25 30 50 30 55 0 6 6 15 13 19 14 9 32 37 47 71 5 12 14 22
20 22 5 0 10 7 10 16 0 9 14 33 30 54 17 21 30 45 30 54 0 9 5 16 10 16 6 0
15 10 20 22 6 13 19 37 30 53 11 17 24 39 30 50 6 11 19 34 30 50 11 17 23 38
26 47 3 9 12 19 20 22 8 3 14 12 14 21 0 8 14 34 30 57 17 22 30 47 30 55 0 7
5 13 10 13 6 0 14 10 19 22 5 13 20 39 33 58 12 19 32 52 43 73 26 50 33 23
11 -43 -9 -27 -16 -67 -16 -90 0 -22 -7 -57 -15 -77 -8 -19 -15 -55 -15 -79 0
-24 -6 -61 -14 -81 -8 -21 -17 -69 -19 -106 -3 -38 -10 -74 -16 -80 -6 -6 -11
-38 -11 -71 -1 -34 -7 -79 -15 -101 -8 -22 -15 -63 -15 -91 0 -28 -7 -71 -15
-94 -8 -23 -15 -68 -15 -100 0 -32 -7 -77 -15 -100 -8 -23 -15 -73 -15 -110 0
-37 -7 -87 -15 -110 -8 -23 -15 -77 -15 -119 0 -42 -7 -103 -15 -136 -8 -35
-14 -112 -15 -185 0 -81 -5 -142 -15 -174 -8 -27 -15 -74 -15 -103 0 -30 -5
-64 -12 -76 -30 -54 -36 -189 -23 -499 6 -125 4 -151 -9 -170 -9 -12 -16 -36
-16 -53 0 -17 -7 -40 -15 -51 -8 -10 -15 -33 -15 -49 0 -17 -5 -36 -12 -43
-40 -40 -40 -414 0 -489 18 -32 15 -251 -3 -283 -8 -14 -15 -43 -15 -65 0 -22
-7 -51 -15 -65 -8 -14 -15 -41 -15 -60 0 -19 -7 -44 -15 -54 -8 -11 -15 -37
-15 -57 0 -21 -4 -40 -9 -44 -19 -11 -23 -89 -7 -135 9 -25 16 -61 16 -80 0
-19 7 -46 15 -60 8 -14 14 -40 15 -58 0 -18 7 -49 15 -69 21 -50 21 -289 0
-329 -8 -16 -15 -51 -15 -79 -1 -27 -7 -61 -15 -75 -8 -14 -14 -47 -15 -73 0
-27 -7 -70 -16 -98 -17 -50 -13 -132 7 -144 5 -4 9 -21 9 -40 0 -18 7 -40 15
-49 8 -8 15 -25 15 -38 0 -13 7 -33 15 -44 8 -10 15 -29 15 -41 0 -12 7 -28
15 -37 8 -8 15 -26 15 -41 0 -14 7 -39 16 -56 13 -26 15 -94 15 -493 -1 -400
1 -465 14 -476 8 -7 15 -23 15 -35 0 -12 7 -28 15 -35 8 -7 15 -19 15 -27 0
-7 7 -16 15 -19 8 -4 15 -12 15 -20 0 -8 3 -14 8 -14 4 0 27 -20 52 -45 25
-24 53 -44 62 -45 9 0 30 -8 46 -17 28 -16 32 -16 71 2 23 10 57 36 76 58 l35
40 0 166 c-1 91 -5 186 -11 211 -6 25 -14 92 -18 150 -4 58 -13 115 -19 127
-7 12 -12 51 -12 87 0 36 -6 85 -14 108 -8 24 -16 82 -19 129 -2 47 -10 95
-16 107 -6 11 -11 51 -11 89 -1 37 -7 86 -15 108 -8 22 -15 70 -15 106 0 36
-7 88 -15 115 -18 59 -21 460 -4 564 5 36 13 214 17 395 4 182 11 336 16 343
5 8 12 158 17 335 5 177 13 356 18 397 6 41 10 197 10 347 1 149 6 305 11 345
6 40 14 170 20 288 5 118 14 242 19 275 5 33 10 105 10 161 1 56 6 114 11 130
6 16 14 85 20 154 5 69 13 145 19 170 6 25 10 72 11 106 0 34 5 74 10 91 6 16
15 67 19 114 16 150 31 253 42 289 5 19 14 67 19 105 17 123 35 230 41 240 4
6 10 39 13 75 4 36 11 69 17 74 5 6 9 30 9 55 0 26 7 59 15 75 8 15 15 42 15
60 1 17 7 49 15 71 8 22 15 54 15 70 0 17 7 43 15 59 8 15 15 45 15 65 0 21 7
46 15 57 8 10 15 35 15 55 0 19 7 44 15 55 8 10 15 35 15 55 0 19 7 44 15 55
8 10 15 35 15 55 0 19 7 44 15 55 8 10 15 33 15 50 0 16 7 39 15 50 8 10 15
33 15 50 0 17 7 37 15 44 8 7 15 25 15 39 0 15 7 36 15 47 8 10 15 33 15 50 0
17 7 37 15 44 8 7 15 25 15 40 0 15 7 33 15 40 8 7 15 25 15 40 0 15 7 33 15
40 8 7 15 22 15 34 0 11 7 30 15 40 8 11 15 30 15 42 0 12 7 27 15 34 8 7 15
23 15 36 0 13 4 24 10 24 5 0 13 12 16 28 6 25 12 38 50 114 8 14 14 31 14 38
0 6 7 18 15 26 8 9 15 24 15 33 0 10 7 24 15 31 8 7 15 18 15 24 0 6 13 38 29
71 213 435 330 669 353 708 15 26 28 54 28 61 0 8 7 19 15 26 8 7 15 21 15 32
0 10 7 21 15 24 8 4 15 14 15 24 0 10 7 23 15 30 8 7 15 20 15 30 0 10 7 23
15 30 8 7 15 20 15 30 0 10 7 23 15 30 8 7 15 21 15 32 0 10 7 21 15 24 8 4
15 14 15 24 0 10 7 23 15 30 8 7 15 21 15 31 0 10 4 21 10 24 5 3 22 31 36 60
14 30 29 57 35 60 5 4 9 15 9 26 0 10 4 19 10 19 5 0 12 11 16 25 3 13 12 29
20 36 8 6 14 20 14 31 0 10 7 21 15 24 8 4 15 16 15 29 0 13 7 25 15 29 8 3
15 14 15 24 0 11 7 25 15 32 8 7 15 21 15 31 0 11 4 19 9 19 5 0 14 12 20 28
17 39 69 134 81 146 5 5 10 18 10 27 0 9 7 19 15 23 8 3 15 14 15 24 0 11 7
25 15 32 8 7 15 21 15 31 0 10 4 20 9 23 8 6 23 32 113 206 18 36 35 67 38 70
3 3 23 41 45 85 22 44 42 82 45 85 3 3 30 55 60 115 30 61 58 111 62 113 5 2
8 11 8 21 0 9 7 26 15 37 8 10 15 26 15 35 0 9 7 22 15 29 8 7 15 23 15 35 0
12 7 28 15 35 8 7 15 23 15 35 0 12 7 28 15 35 8 7 15 25 15 40 0 15 7 33 15
40 8 7 15 27 15 45 0 18 7 38 15 45 8 7 15 27 15 44 0 17 7 40 15 50 8 11 15
34 15 52 0 17 7 37 15 44 8 7 15 27 15 44 0 18 7 41 15 52 8 10 15 33 15 49 0
17 7 39 15 49 8 11 15 31 15 45 0 14 7 35 15 45 8 11 15 31 15 45 0 14 7 35
15 45 8 11 15 31 15 45 0 14 7 35 15 45 8 11 15 29 15 40 0 12 7 30 15 40 8
11 15 28 15 37 0 15 11 41 41 99 5 8 25 49 46 90 21 41 41 77 44 80 3 3 12 17
20 32 16 30 119 198 131 213 36 45 98 137 98 145 0 5 6 13 13 17 18 11 77 89
77 101 0 6 6 15 13 19 7 4 27 27 46 51 27 34 39 42 66 42 19 0 36 4 40 9 3 6
27 13 53 16 26 4 56 11 67 16 11 5 43 14 70 19 28 5 77 16 110 24 137 34 193
48 245 60 30 7 62 15 70 18 8 4 34 9 58 12 24 4 51 10 60 15 17 9 75 22 182
42 30 5 59 14 64 20 6 5 26 9 45 9 20 0 47 6 62 13 14 8 49 17 79 20 29 4 58
11 64 17 5 5 25 10 43 10 19 0 50 7 70 15 19 8 52 15 72 15 21 0 46 7 57 15
10 8 37 15 59 15 22 0 51 7 65 15 14 8 43 14 66 15 22 0 49 7 60 15 10 8 37
15 59 15 22 0 53 7 69 15 15 8 45 15 65 15 20 1 47 7 61 15 14 8 43 15 65 15
22 0 49 7 59 15 11 8 38 15 61 15 23 0 50 7 61 15 10 8 37 15 59 15 22 0 51 7
65 15 14 8 41 15 60 15 19 0 46 7 60 15 14 8 43 15 65 15 22 0 49 7 59 15 11
8 38 15 61 15 23 0 50 7 61 15 10 8 37 15 59 15 22 0 51 7 65 15 14 8 43 15
65 15 22 0 49 7 59 15 11 8 38 15 60 15 23 0 50 7 60 15 11 8 38 15 60 15 23
1 52 7 66 15 14 8 41 14 61 15 20 0 50 7 65 15 16 8 45 15 64 15 19 1 46 7 60
15 14 8 41 14 61 15 20 0 50 7 65 15 16 8 45 15 65 15 20 0 50 7 65 15 16 8
45 15 65 15 20 0 50 7 65 15 16 8 46 15 67 15 21 0 48 6 60 13 14 7 85 14 187
18 164 7 295 23 315 39 6 5 38 12 73 16 34 3 65 11 68 15 3 5 23 9 45 9 22 0
56 7 76 15 19 8 52 15 72 15 20 0 47 6 62 13 14 8 49 17 79 20 29 4 58 11 64
17 5 5 28 10 51 10 22 0 53 7 69 15 15 8 42 15 60 15 17 0 44 7 60 15 15 8 45
15 65 15 21 0 46 7 57 15 10 8 37 15 59 15 22 0 51 7 65 15 14 8 41 14 61 15
19 0 44 7 55 15 10 8 37 15 60 15 22 0 49 7 60 15 10 8 35 15 55 15 19 0 44 7
55 15 10 8 35 15 55 15 19 0 44 7 55 15 10 8 35 15 55 15 19 0 44 7 55 15 10
8 35 15 55 15 19 0 44 7 55 15 10 8 35 15 54 15 19 0 44 7 54 15 11 8 34 15
51 15 17 0 40 7 51 15 10 8 33 15 50 15 17 0 37 7 44 15 7 8 27 15 45 15 18 0
38 7 45 15 7 8 18 15 25 15 16 0 22 67 15 144 -4 41 -12 62 -33 85 -26 29 -31
31 -102 31 -45 0 -90 -6 -112 -15 -19 -8 -56 -15 -82 -15 -25 0 -59 -7 -75
-15 -15 -8 -49 -15 -75 -15 -25 -1 -57 -7 -71 -15 -14 -8 -42 -14 -63 -15 -21
0 -54 -7 -74 -15 -19 -8 -52 -15 -72 -15 -20 0 -49 -7 -65 -15 -15 -8 -47 -15
-70 -15 -23 0 -51 -7 -62 -15 -10 -8 -40 -15 -65 -15 -25 0 -54 -7 -65 -15
-10 -8 -39 -15 -64 -15 -25 0 -54 -7 -64 -15 -11 -8 -38 -15 -61 -15 -23 0
-50 -7 -61 -15 -10 -8 -39 -15 -64 -15 -25 0 -54 -7 -64 -15 -11 -8 -38 -15
-60 -15 -23 -1 -52 -7 -66 -15 -14 -8 -41 -15 -60 -15 -19 0 -46 -7 -60 -15
-14 -8 -41 -15 -60 -15 -19 0 -46 -7 -60 -15 -14 -8 -41 -15 -60 -15 -19 0
-46 -7 -60 -15 -14 -8 -43 -15 -65 -15 -22 0 -49 -7 -59 -15 -11 -8 -36 -15
-55 -15 -20 0 -45 -7 -55 -15 -11 -8 -36 -15 -56 -15 -20 0 -45 -7 -56 -15
-10 -8 -35 -15 -54 -15 -19 0 -46 -7 -60 -15 -14 -8 -37 -14 -51 -15 -15 0
-32 -7 -39 -15 -7 -8 -20 -15 -30 -15 -10 0 -23 -7 -30 -15 -7 -8 -18 -15 -25
-15 -7 0 -26 -7 -41 -15 -16 -8 -43 -15 -60 -15 -18 0 -45 -7 -60 -15 -16 -8
-43 -15 -60 -15 -18 0 -45 -7 -60 -15 -16 -8 -44 -15 -62 -15 -18 0 -43 -5
-55 -12 -12 -6 -42 -15 -67 -19 -78 -14 -154 -31 -170 -39 -9 -4 -39 -11 -68
-15 -29 -4 -54 -11 -58 -16 -3 -5 -21 -9 -40 -9 -19 0 -51 -7 -71 -15 -19 -8
-50 -15 -67 -15 -17 0 -42 -6 -57 -13 -14 -8 -49 -17 -79 -20 -29 -4 -58 -11
-64 -17 -5 -5 -28 -10 -51 -10 -23 0 -50 -7 -61 -15 -10 -8 -37 -15 -59 -15
-22 0 -53 -7 -69 -15 -15 -8 -44 -15 -63 -15 -19 0 -44 -5 -56 -12 -12 -7 -49
-15 -82 -19 -33 -4 -61 -12 -63 -18 -2 -6 -25 -11 -51 -11 -26 0 -56 -7 -67
-15 -10 -8 -37 -15 -59 -15 -22 0 -53 -7 -69 -15 -15 -8 -45 -15 -65 -15 -20
-1 -47 -7 -61 -15 -14 -8 -43 -15 -65 -15 -22 0 -51 -7 -65 -15 -14 -8 -43
-14 -66 -15 -22 0 -49 -7 -60 -15 -10 -8 -40 -15 -65 -15 -25 0 -54 -7 -65
-15 -10 -8 -39 -15 -64 -15 -25 0 -54 -7 -64 -15 -11 -8 -38 -15 -61 -15 -23
0 -50 -7 -61 -15 -10 -8 -39 -15 -64 -15 -25 0 -56 -7 -70 -15 -14 -8 -43 -14
-66 -15 -22 0 -49 -7 -60 -15 -10 -8 -39 -15 -64 -15 -25 0 -56 -7 -70 -15
-14 -8 -43 -15 -65 -15 -22 0 -51 -7 -65 -15 -14 -8 -45 -15 -70 -15 -25 0
-54 -7 -64 -15 -11 -8 -40 -15 -65 -15 -25 -1 -57 -7 -71 -15 -14 -8 -44 -14
-68 -15 -38 0 -48 5 -88 45 -24 25 -50 45 -58 45 -8 0 -16 7 -20 15 -3 9 -18
15 -38 15 -18 0 -45 8 -60 18 l-27 18 29 54 c16 30 32 62 36 70 14 34 67 146
75 160 5 8 12 22 15 30 21 50 47 101 55 106 5 3 9 14 9 25 0 11 7 27 15 35 8
9 15 24 15 33 0 10 7 24 15 31 8 7 15 20 15 29 0 9 7 25 15 35 8 11 15 28 15
38 0 10 5 18 10 18 6 0 10 5 10 11 0 7 10 33 21 58 12 25 29 62 37 81 8 19 19
43 23 52 5 10 9 23 9 28 0 11 32 89 49 120 5 9 12 30 15 48 4 17 12 34 17 37
5 4 9 16 9 29 0 12 7 31 15 42 8 10 15 28 15 40 0 11 7 29 15 40 8 10 15 31
15 45 0 14 7 34 15 45 8 10 15 31 15 45 0 14 7 34 15 45 8 10 15 33 15 50 0
16 7 39 15 50 8 10 15 35 15 55 0 20 7 42 15 49 8 7 15 29 15 49 1 20 7 47 15
61 8 14 14 41 15 60 0 19 7 48 15 64 8 15 15 47 15 70 1 22 7 52 15 66 8 14
14 47 15 73 0 26 7 64 15 84 8 19 15 61 15 93 0 32 7 77 15 100 9 26 15 79 15
134 0 50 7 118 15 151 8 33 14 76 15 95 0 29 6 39 30 53 17 10 30 22 30 28 0
5 7 9 16 9 9 0 33 14 54 30 21 17 43 30 49 30 7 0 14 7 17 15 4 8 11 15 16 15
29 0 318 335 318 368 0 6 6 15 14 19 8 4 24 27 36 51 12 23 26 42 30 42 4 0
11 11 14 25 4 14 11 25 16 25 6 0 10 6 10 14 0 7 7 19 15 26 8 7 15 21 15 31
0 11 4 19 9 19 9 0 27 28 49 75 9 20 53 67 84 91 7 6 45 14 82 18 38 4 77 11
87 16 10 6 53 10 97 10 45 0 98 6 122 15 23 8 77 15 119 15 42 0 98 7 125 15
27 8 81 15 120 15 39 0 93 7 120 15 27 8 83 15 125 15 42 0 98 7 125 15 27 8
86 15 130 15 45 0 103 7 130 15 27 8 88 15 135 15 47 0 102 5 121 11 19 6 103
15 185 20 83 4 182 12 220 18 39 6 278 11 535 12 256 0 476 4 490 8 44 13 15
71 -36 71 -12 0 -35 7 -50 15 -16 8 -43 15 -59 15 -17 0 -36 5 -42 11 -6 6
-44 15 -85 20 -40 5 -93 13 -118 18 -25 6 -160 10 -300 11 -140 0 -356 4 -480
10 -124 5 -630 12 -1125 16 l-899 7 -61 40 c-33 22 -64 45 -70 51 -14 15 -80
72 -139 121 -27 22 -65 55 -85 72 -20 18 -41 33 -46 33 -6 0 -25 14 -43 30
-18 17 -39 30 -47 30 -8 0 -16 4 -19 9 -8 13 -89 51 -108 51 -9 0 -21 7 -28
15 -7 8 -29 15 -50 15 -21 0 -54 7 -73 15 -47 19 -256 19 -307 0z m578 -673
c59 -25 89 -80 72 -133 -7 -20 -9 -42 -6 -48 10 -16 62 -13 76 4 7 8 23 15 35
15 12 0 28 7 35 15 7 8 20 15 29 15 10 0 26 7 37 15 10 8 29 15 40 15 12 0 27
7 34 15 7 8 24 15 39 15 14 0 35 7 45 15 11 8 33 15 49 15 15 0 38 5 50 12 12
6 57 15 100 20 42 4 114 12 160 17 85 10 664 15 655 6 -6 -7 -182 -23 -382
-35 -88 -6 -175 -14 -195 -20 -20 -5 -56 -10 -81 -10 -25 0 -58 -7 -74 -15
-15 -8 -36 -15 -45 -15 -10 0 -26 -7 -37 -15 -10 -8 -24 -15 -31 -15 -21 0
-97 -57 -143 -107 -52 -56 -77 -92 -105 -148 -11 -22 -22 -42 -25 -45 -3 -3
-18 -30 -33 -60 -15 -30 -40 -77 -57 -105 -16 -27 -34 -59 -40 -70 -6 -11 -19
-33 -30 -50 -11 -16 -25 -40 -31 -52 -7 -13 -16 -23 -21 -23 -4 0 -8 -7 -8
-15 0 -8 -4 -15 -9 -15 -5 0 -13 -9 -16 -21 -13 -39 -189 -203 -293 -272
l-102 -67 0 -64 c0 -35 -4 -76 -10 -92 -5 -16 -14 -69 -20 -119 -12 -113 -27
-211 -46 -296 -7 -37 -14 -88 -14 -114 0 -25 -5 -55 -10 -65 -6 -11 -13 -47
-16 -82 -4 -35 -10 -67 -14 -73 -5 -5 -11 -32 -15 -60 -3 -27 -10 -59 -15 -70
-5 -11 -14 -42 -19 -70 -13 -70 -31 -137 -40 -155 -5 -9 -12 -31 -15 -50 -4
-19 -11 -44 -16 -55 -4 -11 -25 -74 -45 -140 -21 -66 -42 -124 -46 -129 -5 -6
-9 -17 -9 -25 0 -9 -7 -29 -15 -45 -8 -15 -15 -36 -15 -45 0 -10 -7 -26 -15
-37 -8 -10 -15 -25 -15 -32 0 -8 -7 -30 -16 -50 -8 -21 -22 -52 -29 -70 -8
-18 -22 -49 -31 -70 -9 -20 -22 -50 -29 -67 -41 -95 -187 -398 -215 -445 -5
-8 -11 -22 -14 -30 -4 -8 -15 -28 -26 -45 -11 -16 -24 -39 -30 -50 -6 -11 -19
-33 -30 -50 -11 -16 -23 -37 -27 -45 -4 -8 -13 -21 -20 -28 -7 -7 -13 -19 -13
-27 0 -7 -7 -15 -15 -19 -8 -3 -15 -12 -15 -21 0 -8 -3 -15 -7 -15 -5 0 -19
-17 -33 -38 -32 -47 -189 -205 -223 -223 -14 -8 -47 -25 -74 -38 -26 -13 -56
-28 -66 -33 -37 -19 -111 -21 -151 -4 -21 9 -50 16 -65 16 -14 0 -46 6 -71 14
-122 39 -234 59 -277 51 -77 -14 -212 -106 -323 -220 -77 -79 -165 -123 -280
-139 -24 -4 -49 -11 -55 -16 -12 -10 -92 -17 -100 -9 -3 4 1 12 10 19 8 7 15
21 15 30 0 10 7 31 15 47 8 15 26 55 41 88 14 33 34 77 45 98 10 21 19 44 19
52 0 8 5 15 10 15 6 0 10 5 10 11 0 14 10 35 129 280 50 102 91 191 91 198 0
6 5 11 10 11 6 0 10 7 10 15 0 17 41 99 52 103 4 2 8 12 8 22 0 10 6 25 13 32
8 7 17 26 21 41 3 15 11 27 16 27 6 0 10 7 10 15 0 17 41 99 52 103 4 2 8 10
8 17 0 8 27 67 59 132 33 65 62 125 65 133 3 8 10 22 15 30 5 8 12 22 15 30 3
8 10 22 15 30 24 40 71 142 71 154 0 7 7 19 15 26 8 7 15 23 15 36 0 13 4 24
10 24 5 0 13 12 16 28 4 15 13 36 20 47 8 11 14 27 14 36 0 9 7 22 15 29 8 7
15 22 15 34 0 11 7 30 15 40 8 11 15 27 15 37 0 9 7 22 15 29 8 7 15 22 15 34
0 11 7 30 15 40 8 11 15 29 15 41 0 12 4 25 10 31 5 5 14 43 20 84 12 96 28
192 42 255 6 28 15 79 19 115 5 36 15 106 23 155 31 190 48 293 60 380 8 50
15 90 16 90 1 0 8 41 16 90 16 113 41 254 48 280 3 11 8 41 11 68 6 42 10 49
42 62 19 8 44 15 53 15 10 0 31 7 47 14 15 8 35 18 43 21 8 3 29 14 45 25 17
11 37 23 45 27 14 6 129 91 140 103 3 3 28 23 55 45 28 21 52 42 55 45 10 11
128 105 150 120 12 8 28 21 36 28 7 6 17 12 23 12 5 0 16 6 23 13 16 15 68 39
130 62 55 19 191 17 374 -5 111 -13 120 -13 244 17 46 11 50 37 12 77 -37 38
-52 90 -39 131 13 40 24 53 66 75 44 23 55 23 109 2z m-2100 -1060 c-7 -10
-22 -35 -33 -57 -23 -46 -158 -185 -180 -185 -17 0 -20 25 -5 35 6 3 10 16 10
27 0 38 41 107 87 148 25 22 51 40 58 40 6 0 24 14 41 31 l29 31 3 -27 c2 -15
-3 -34 -10 -43z m273 21 c9 -60 -3 -80 -80 -145 -18 -16 -35 -28 -37 -28 -9 0
-3 55 11 103 11 38 24 58 48 75 42 29 54 28 58 -5z m-36 -435 c-8 -28 -15 -70
-15 -92 -1 -23 -7 -52 -15 -66 -8 -14 -14 -37 -15 -51 0 -15 -7 -32 -15 -39
-8 -7 -15 -18 -15 -24 0 -18 -98 -96 -120 -96 -15 0 -11 52 5 80 8 14 14 37
15 51 0 15 7 40 15 55 8 16 15 40 15 54 1 14 7 36 15 50 8 14 14 36 15 49 0
53 35 126 80 168 l45 42 3 -65 c2 -37 -4 -85 -13 -116z m-582 49 c-29 -50 -93
-123 -93 -107 0 26 33 87 58 107 27 21 48 22 35 0z m246 -19 c-19 -49 -68
-110 -117 -149 -24 -19 -50 -40 -57 -46 -8 -7 -18 -13 -24 -13 -14 0 -3 49 15
71 8 8 14 23 14 31 0 18 74 88 93 88 7 0 28 13 47 29 19 16 37 27 39 25 2 -2
-2 -18 -10 -36z m64 -184 c-5 -48 -20 -111 -31 -131 -7 -12 -12 -37 -12 -57 0
-19 -4 -37 -9 -41 -5 -3 -12 -19 -16 -36 -6 -28 -8 -29 -24 -15 -34 31 -46 89
-31 153 14 59 63 138 90 146 25 7 35 1 33 -19z m-433 -38 c0 -8 -4 -18 -10
-21 -5 -3 -10 -15 -10 -25 0 -26 -76 -182 -107 -220 -77 -96 -95 -110 -138
-110 -26 0 -48 -6 -55 -15 -14 -17 -50 -20 -50 -5 0 10 99 76 136 91 18 6 24
16 24 39 0 56 43 176 83 230 32 42 127 69 127 36z m208 -293 c1 -54 4 -115 7
-135 7 -51 -8 -55 -44 -11 -27 32 -31 46 -31 94 0 58 20 111 50 136 8 7 15 13
16 13 1 0 2 -44 2 -97z m-173 -14 c-4 -32 -67 -99 -93 -99 -7 0 -15 -7 -18
-15 -7 -17 -24 -20 -24 -4 0 6 14 30 32 53 78 101 110 121 103 65z m484 -200
c6 -18 11 -44 11 -58 0 -36 -25 -153 -38 -177 -6 -10 -20 -39 -32 -64 -11 -25
-25 -52 -30 -60 -5 -8 -11 -22 -14 -30 -6 -16 -28 -52 -36 -60 -6 -6 -43 -60
-50 -75 -3 -5 -26 -41 -50 -80 l-45 -70 -5 55 c-3 30 -11 65 -18 77 -17 31
-16 203 2 228 7 11 16 32 20 48 3 15 11 27 16 27 6 0 10 6 10 14 0 15 227 256
241 256 4 0 12 -14 18 -31z m-539 -60 c0 -18 -111 -127 -167 -165 -39 -26 -62
-34 -96 -34 -57 0 -77 8 -77 29 0 21 86 95 152 129 82 43 188 66 188 41z
m-443 -59 c1 -28 -2 -50 -6 -50 -9 0 -111 -133 -124 -160 -4 -8 -15 -27 -25
-41 -9 -15 -26 -41 -37 -58 -29 -47 -50 -37 -23 12 6 12 15 40 19 62 9 51 30
105 49 125 8 9 40 49 70 88 30 39 60 72 65 72 6 0 11 -23 12 -50z m616 -13
c-4 -12 -12 -31 -20 -42 -7 -11 -13 -27 -13 -36 0 -10 -3 -19 -7 -21 -5 -1
-16 -19 -26 -38 -23 -45 -115 -160 -127 -160 -19 0 7 90 52 175 22 41 128 154
140 148 3 -2 4 -13 1 -26z m-349 -274 c-4 -21 -13 -45 -20 -54 -8 -8 -14 -21
-14 -28 0 -28 -190 -241 -214 -241 -4 0 -20 14 -36 30 -24 24 -30 40 -30 74 0
70 47 111 280 246 32 19 41 12 34 -27z m226 -199 c0 -10 -93 -149 -102 -152
-4 -2 -8 -9 -8 -16 0 -6 -29 -40 -65 -74 -58 -56 -69 -62 -107 -62 -42 0 -78
21 -78 46 0 26 183 198 245 230 54 29 115 43 115 28z m7303 -75 c46 -24 66
-61 67 -120 0 -34 -5 -61 -12 -66 -7 -6 -37 -13 -67 -16 -51 -6 -53 -6 -46 16
15 46 2 111 -28 144 -23 26 -23 25 18 40 40 15 43 15 68 2z m-7959 -30 c3 -17
6 -42 6 -56 0 -44 -62 -121 -127 -159 -23 -14 -47 -31 -53 -39 -22 -26 -41
-18 -34 13 4 15 10 32 14 37 4 6 10 21 13 35 7 30 62 89 93 100 12 5 31 29 44
54 12 25 25 46 30 46 4 0 10 -14 14 -31z m7581 -65 c20 -5 55 -73 55 -107 0
-10 -7 -33 -14 -52 -11 -25 -21 -35 -38 -35 -13 0 -32 -7 -42 -15 -38 -28 -43
-19 -38 59 4 69 3 77 -22 109 l-27 36 33 4 c56 7 72 7 93 1z m-423 -126 c28
-32 33 -50 30 -121 -2 -48 -14 -63 -55 -70 -18 -3 -41 -8 -53 -12 -20 -6 -21
-3 -21 68 0 53 -4 81 -16 98 -24 33 -21 46 11 57 49 18 74 14 104 -20z m-6527
-54 c14 -9 34 -32 46 -51 19 -31 21 -45 17 -143 -2 -60 -9 -115 -15 -122 -6
-7 -14 -28 -18 -45 -3 -18 -10 -33 -15 -33 -4 0 -10 -10 -14 -23 -3 -13 -23
-44 -44 -68 -21 -24 -42 -55 -45 -69 -4 -14 -11 -32 -17 -40 -9 -13 -11 -13
-20 0 -11 16 -3 163 11 215 22 76 6 125 -61 189 -36 35 -43 38 -65 28 -17 -8
-25 -20 -25 -37 0 -14 -7 -42 -15 -62 -8 -19 -15 -54 -15 -77 0 -22 -7 -59
-15 -81 -8 -22 -14 -62 -15 -88 0 -27 -5 -58 -12 -70 -6 -12 -15 -51 -19 -87
-13 -104 -32 -179 -48 -185 -22 -9 -24 1 -12 49 7 28 11 144 11 301 l0 257
-42 39 c-23 21 -47 39 -53 39 -18 0 -35 -22 -35 -45 0 -12 -5 -26 -10 -31 -6
-6 -15 -39 -20 -75 -13 -88 -29 -166 -46 -219 -8 -25 -14 -61 -14 -80 0 -20
-4 -40 -9 -45 -6 -6 -15 -35 -20 -65 -18 -96 -33 -164 -41 -185 -5 -11 -11
-38 -15 -60 -4 -22 -13 -60 -20 -85 -33 -106 -45 -154 -45 -176 0 -12 -4 -25
-9 -28 -5 -4 -12 -25 -16 -49 -4 -23 -11 -46 -15 -52 -4 -5 -11 -26 -15 -45
-4 -19 -11 -39 -15 -45 -4 -5 -11 -25 -15 -43 -6 -31 -17 -57 -54 -132 -20
-42 -81 -78 -133 -79 -21 -1 -38 2 -38 5 0 4 10 28 21 53 12 25 25 55 30 66
24 60 51 122 58 135 5 9 12 30 15 48 4 17 12 34 17 37 5 4 9 13 9 22 0 8 6 29
14 46 8 18 25 64 37 102 12 39 26 74 31 80 4 5 8 21 8 35 0 14 7 35 15 46 8
10 15 30 15 44 0 14 7 36 15 50 8 14 14 36 15 50 0 14 7 38 15 54 8 15 15 40
15 55 0 14 7 39 15 55 8 15 15 45 15 65 1 20 7 47 15 61 8 14 14 48 15 76 0
28 5 75 11 105 20 104 -32 175 -85 117 -23 -24 -86 -143 -86 -162 0 -6 -6 -23
-14 -38 -8 -15 -17 -40 -21 -57 -4 -17 -11 -33 -16 -36 -5 -4 -9 -16 -9 -28 0
-12 -7 -35 -15 -51 -8 -15 -15 -38 -15 -50 0 -12 -7 -31 -15 -42 -8 -10 -15
-33 -15 -50 0 -16 -7 -39 -15 -50 -8 -10 -15 -30 -15 -44 0 -14 -7 -38 -15
-54 -8 -15 -15 -37 -15 -48 0 -11 -6 -34 -14 -51 -8 -18 -16 -43 -19 -57 -5
-24 -9 -38 -37 -120 -7 -19 -16 -51 -20 -70 -8 -33 -13 -51 -41 -132 -6 -18
-14 -46 -17 -63 -2 -16 -11 -39 -18 -50 -8 -11 -14 -31 -14 -45 0 -15 -7 -35
-15 -46 -8 -10 -15 -29 -15 -42 0 -36 -28 -82 -49 -82 -11 0 -26 -3 -35 -6
-13 -5 -16 1 -16 27 1 19 7 45 15 59 8 14 14 35 15 46 0 12 7 35 15 50 8 16
15 39 15 50 0 12 7 35 15 50 8 16 15 38 15 49 1 11 7 31 15 45 8 14 14 35 15
46 0 12 7 35 15 50 8 16 15 39 15 50 0 12 7 35 15 50 8 16 15 40 15 54 0 14 7
34 15 44 8 11 15 27 15 37 0 9 7 30 15 45 8 16 15 38 15 50 0 11 4 24 9 30 6
5 14 27 20 49 6 22 17 67 26 100 9 33 21 83 27 110 5 28 12 57 16 65 3 8 11
40 18 70 27 119 37 155 44 165 4 6 10 23 14 38 4 16 18 46 31 68 14 21 25 43
25 48 0 21 99 107 151 132 199 97 207 100 229 74 7 -8 21 -15 31 -15 11 0 19
-4 19 -9 0 -5 12 -14 28 -20 15 -6 45 -22 67 -36 61 -37 117 -34 185 11 30 20
57 39 60 43 8 10 71 61 76 61 3 0 16 -7 29 -16z m5059 -327 c12 -9 17 -23 14
-42 -3 -31 0 -30 -128 -59 -30 -7 -62 -15 -70 -19 -16 -6 -85 -22 -165 -38
-27 -5 -57 -13 -65 -16 -8 -4 -40 -12 -70 -19 -30 -7 -84 -20 -120 -29 -36 -9
-85 -19 -110 -24 -25 -4 -61 -12 -80 -18 -53 -17 -119 -33 -175 -43 -27 -5
-59 -14 -70 -19 -11 -5 -41 -12 -67 -16 -26 -3 -50 -10 -53 -16 -4 -5 -22 -9
-41 -9 -19 0 -51 -7 -71 -15 -19 -8 -50 -15 -67 -15 -17 -1 -42 -7 -56 -15
-14 -8 -40 -14 -58 -15 -18 0 -49 -7 -69 -15 -19 -8 -50 -15 -67 -15 -17 -1
-42 -7 -56 -15 -14 -8 -40 -14 -58 -15 -18 0 -49 -7 -69 -15 -19 -8 -50 -15
-67 -15 -17 -1 -42 -7 -56 -15 -14 -8 -40 -14 -58 -15 -18 0 -49 -7 -69 -15
-19 -8 -50 -15 -67 -15 -17 -1 -42 -7 -56 -15 -14 -8 -43 -15 -65 -15 -22 0
-49 -7 -59 -15 -11 -8 -38 -15 -60 -15 -23 -1 -52 -7 -66 -15 -14 -8 -43 -15
-65 -15 -22 0 -51 -7 -65 -15 -14 -8 -41 -15 -60 -15 -19 0 -46 -7 -60 -15
-14 -8 -43 -14 -66 -15 -22 0 -45 -5 -51 -11 -6 -6 -35 -14 -64 -19 -60 -10
-120 -24 -189 -46 -70 -22 -90 -19 -96 16 -4 16 -13 35 -20 41 -33 28 -1 48
101 64 22 4 45 10 50 15 6 4 34 10 64 13 30 4 59 11 65 17 5 5 26 10 45 10 20
1 54 7 76 15 22 8 54 15 70 15 17 0 43 7 59 15 15 8 44 15 62 15 19 0 51 7 71
15 19 8 50 15 67 15 17 0 44 7 60 15 15 8 45 15 65 15 20 0 49 7 65 15 15 8
47 15 70 15 22 1 52 7 66 15 14 8 40 14 58 15 18 0 49 7 69 15 19 8 50 15 67
15 17 0 44 7 60 15 15 8 44 15 62 15 19 0 51 7 71 15 19 8 50 15 67 15 17 0
44 7 60 15 15 8 43 15 61 15 18 0 49 7 68 15 20 8 49 15 65 15 16 0 46 7 65
15 20 8 51 15 69 15 18 1 44 7 58 15 14 8 43 15 65 15 22 0 51 7 65 15 14 8
43 15 65 15 22 0 51 7 65 15 14 8 43 15 65 15 22 0 51 7 65 15 14 8 39 14 56
15 17 0 48 7 67 15 20 8 49 15 65 15 16 0 46 7 65 15 20 8 49 15 66 15 16 0
42 7 57 15 16 8 44 15 62 15 18 0 43 5 54 11 11 6 44 15 72 20 28 4 78 15 111
23 77 18 87 19 109 3z m-5505 -759 c-8 -48 -25 -99 -45 -140 -8 -14 -14 -33
-14 -41 0 -8 -7 -28 -15 -43 -8 -16 -15 -38 -15 -49 0 -11 -7 -29 -15 -39 -8
-11 -15 -31 -15 -45 0 -14 -7 -35 -15 -45 -8 -11 -15 -26 -15 -35 0 -8 -8 -32
-17 -52 -16 -34 -22 -39 -54 -39 -19 0 -44 -7 -55 -15 -31 -23 -45 -19 -38 13
4 15 13 34 20 43 8 8 14 22 14 29 0 7 7 21 15 30 9 9 64 113 123 231 125 248
119 239 136 239 10 0 11 -11 5 -42z m1461 -375 c0 -3 -7 -13 -15 -22 -27 -28
-65 -75 -93 -116 -15 -22 -30 -41 -34 -43 -5 -2 -8 -10 -8 -18 0 -8 -4 -14 -9
-14 -4 0 -21 -19 -37 -42 -16 -24 -32 -44 -36 -46 -5 -2 -8 -8 -8 -12 0 -5
-13 -24 -30 -42 -16 -18 -30 -36 -30 -41 0 -4 -27 -44 -60 -87 -33 -43 -60
-82 -60 -85 0 -4 -12 -24 -27 -44 -35 -46 -47 -65 -74 -121 -12 -25 -28 -57
-35 -72 -8 -14 -14 -37 -14 -51 0 -14 -7 -38 -15 -53 -8 -16 -15 -39 -15 -50
0 -12 -7 -38 -15 -57 -8 -20 -15 -47 -15 -61 0 -13 -7 -37 -15 -52 -8 -16 -15
-41 -15 -55 0 -15 -7 -40 -15 -55 -8 -16 -15 -41 -15 -55 0 -15 -7 -40 -15
-55 -8 -16 -15 -40 -15 -54 0 -14 -7 -34 -15 -44 -8 -11 -15 -31 -15 -45 0
-14 -7 -35 -15 -45 -8 -11 -15 -28 -15 -38 0 -10 -4 -26 -10 -36 -5 -9 -19
-39 -30 -67 -11 -27 -24 -57 -29 -65 -4 -8 -24 -45 -44 -82 -20 -37 -48 -86
-62 -108 -14 -22 -25 -42 -25 -44 0 -5 -45 -74 -131 -204 -27 -41 -49 -78 -49
-82 0 -5 -6 -15 -12 -22 -15 -16 -34 -45 -48 -73 -6 -11 -19 -33 -30 -50 -38
-60 -90 -172 -90 -196 0 -13 -7 -33 -15 -43 -8 -11 -15 -27 -15 -35 0 -23 -59
-137 -81 -157 -19 -17 -20 -16 -49 11 -17 16 -30 34 -30 41 0 6 -7 17 -15 24
-21 18 -21 273 0 310 8 14 14 37 15 51 0 14 7 34 15 45 8 10 15 29 15 41 0 12
7 34 14 50 8 15 17 35 20 43 3 8 10 22 15 30 5 8 26 49 46 90 46 93 87 166
145 259 71 115 81 131 127 224 24 48 43 96 41 105 -2 13 -16 18 -63 20 -54 3
-93 -7 -155 -37 -16 -9 -59 -79 -60 -99 0 -14 -86 -131 -104 -144 -6 -4 -14
-4 -18 -2 -11 7 -10 102 1 141 8 26 6 37 -8 54 -16 20 -19 21 -47 6 -26 -13
-89 -78 -152 -157 -28 -34 -38 -18 -24 35 7 25 12 58 12 73 1 15 7 38 15 52
19 33 19 99 1 106 -31 12 -104 -52 -175 -154 -30 -42 -48 -59 -54 -53 -17 17
-25 106 -26 263 -1 133 1 152 21 190 12 24 24 45 27 48 4 3 23 39 44 80 21 41
60 116 87 165 27 50 52 97 55 105 4 8 11 22 16 30 5 8 11 21 14 28 3 6 7 18
10 25 3 6 9 19 14 27 5 8 12 22 15 30 3 8 10 22 15 30 5 8 12 22 15 30 3 8 10
22 14 30 8 14 21 42 56 123 16 35 41 102 50 130 3 10 15 17 31 17 14 0 42 7
62 15 19 8 51 15 70 15 18 0 50 7 70 15 19 8 49 15 65 15 16 0 45 7 65 15 19
8 52 15 72 15 20 1 47 7 61 15 14 8 42 14 63 15 22 0 53 6 70 14 18 8 50 17
72 19 22 3 58 10 80 15 22 6 60 16 85 22 25 6 68 15 95 19 28 4 60 12 72 19
12 7 39 12 60 12 21 1 49 7 63 15 14 8 41 14 61 15 20 0 53 7 72 15 20 8 51
15 69 15 18 1 47 7 63 15 32 14 75 19 75 8z m-928 -70 c7 -33 -4 -53 -28 -53
-13 0 -41 -6 -61 -14 -21 -8 -59 -17 -85 -21 -26 -3 -50 -10 -53 -16 -4 -5
-25 -9 -48 -9 -23 -1 -53 -7 -67 -15 -14 -8 -40 -14 -58 -15 -18 0 -49 -7 -69
-15 -19 -8 -50 -15 -67 -15 -17 0 -44 -7 -60 -15 -15 -8 -43 -15 -61 -15 -18
0 -49 -7 -68 -15 -20 -8 -51 -15 -69 -15 -18 -1 -44 -7 -58 -15 -14 -8 -43
-14 -65 -15 -22 0 -53 -7 -69 -15 -15 -8 -45 -15 -65 -15 -20 -1 -47 -7 -61
-15 -14 -8 -43 -15 -65 -15 -22 0 -51 -7 -65 -15 -14 -8 -43 -15 -65 -15 -22
0 -51 -7 -65 -15 -14 -8 -40 -14 -58 -15 -18 0 -49 -7 -69 -15 -19 -8 -52 -15
-72 -15 -20 -1 -47 -7 -61 -15 -14 -8 -40 -14 -58 -15 -18 0 -49 -7 -69 -15
-19 -8 -48 -15 -63 -15 -15 0 -44 -7 -63 -15 -20 -8 -50 -15 -67 -15 -17 0
-41 -5 -52 -11 -11 -6 -44 -15 -72 -19 -54 -9 -118 -25 -176 -43 -19 -6 -55
-14 -80 -18 -25 -5 -72 -15 -105 -23 -116 -30 -190 -48 -240 -58 -27 -6 -57
-14 -66 -18 -9 -5 -38 -12 -65 -15 -27 -4 -53 -10 -59 -14 -10 -6 -88 -24
-184 -42 -29 -5 -61 -14 -70 -18 -9 -5 -40 -12 -68 -16 -29 -4 -55 -11 -59
-16 -10 -18 -24 -9 -24 16 0 29 30 45 84 45 17 0 36 4 42 9 5 6 34 15 64 20
30 6 84 18 120 27 36 8 88 20 115 26 28 6 57 13 65 16 8 3 40 11 70 18 30 7
82 20 115 28 33 8 88 22 123 31 34 8 90 22 125 30 34 9 89 22 122 31 33 8 81
19 107 24 27 5 53 12 59 16 6 3 36 12 67 19 32 7 86 21 122 29 36 9 90 21 120
27 30 5 59 14 65 20 5 5 20 9 35 9 14 0 45 6 70 14 60 19 125 35 182 46 26 5
56 13 67 19 11 6 35 11 53 11 18 0 46 7 62 15 15 8 42 15 58 15 16 0 39 5 51
12 12 6 42 15 67 19 25 4 59 11 75 17 46 16 115 32 174 42 29 5 58 13 64 19 6
6 27 11 47 11 19 0 48 7 64 15 15 8 45 15 65 15 20 1 47 7 61 15 14 8 41 15
60 15 19 0 46 7 60 15 14 8 39 14 56 15 17 0 48 7 67 15 20 8 51 15 69 15 18
1 44 7 58 15 14 8 46 14 72 15 36 0 47 -4 50 -17z m-729 -326 c-2 -24 -39
-113 -53 -127 -3 -3 -16 -27 -30 -55 -14 -27 -28 -52 -31 -55 -4 -3 -23 -35
-43 -73 -20 -37 -61 -108 -91 -158 -30 -49 -55 -92 -55 -94 0 -2 -13 -24 -30
-48 -16 -25 -30 -48 -30 -51 0 -3 -20 -35 -45 -72 -25 -36 -45 -67 -45 -70 0
-5 -57 -83 -80 -111 -5 -7 -10 -15 -10 -18 0 -8 -88 -126 -104 -140 -7 -5 -32
-37 -58 -70 -74 -97 -388 -389 -388 -361 0 8 41 56 90 107 50 50 90 99 90 110
0 10 5 21 11 24 5 4 15 17 20 28 5 12 23 45 40 72 16 28 37 64 45 80 8 17 23
44 34 60 11 17 31 53 46 80 14 28 41 77 60 110 18 33 38 69 44 80 6 11 24 43
41 70 16 28 37 64 45 80 8 17 28 53 45 80 16 28 35 61 42 75 6 14 14 27 17 30
3 3 13 21 24 40 57 107 92 169 113 202 12 21 23 42 23 47 0 5 6 16 13 23 6 7
20 30 31 50 14 29 28 40 67 52 26 9 58 16 71 16 13 0 30 5 38 10 26 17 45 7
43 -23z m-423 -117 c0 -21 -6 -45 -12 -52 -7 -7 -23 -33 -36 -58 -13 -25 -39
-72 -57 -105 -19 -33 -39 -69 -45 -80 -25 -46 -38 -67 -49 -78 -6 -6 -11 -19
-11 -28 0 -9 -7 -19 -15 -23 -8 -3 -15 -14 -15 -25 0 -11 -5 -23 -11 -26 -5
-4 -15 -17 -20 -28 -5 -12 -25 -49 -44 -82 -19 -33 -41 -74 -50 -91 -24 -46
-125 -200 -125 -190 0 5 34 77 75 161 41 83 75 156 75 162 0 6 8 26 17 45 9
18 22 45 30 60 7 14 13 35 13 46 0 11 7 25 15 32 8 7 15 22 15 34 0 12 7 31
15 42 8 10 15 28 15 39 0 11 7 29 15 39 8 11 15 28 15 37 0 10 6 30 14 46 24
45 46 100 46 111 0 26 94 67 123 54 4 -2 7 -21 7 -42z m-270 -43 c0 -12 -7
-31 -15 -41 -8 -11 -15 -28 -15 -37 0 -10 -6 -30 -14 -46 -8 -15 -21 -45 -30
-65 -25 -59 -45 -105 -60 -140 -8 -18 -17 -40 -20 -48 -3 -8 -10 -22 -15 -30
-9 -15 -35 -73 -45 -100 -3 -8 -10 -22 -15 -30 -5 -8 -12 -22 -15 -30 -3 -8
-10 -22 -15 -30 -5 -8 -47 -91 -94 -185 -85 -172 -176 -345 -209 -400 -10 -16
-22 -39 -27 -50 -12 -28 -91 -115 -103 -115 -6 0 5 19 24 43 28 34 127 214
152 277 3 8 10 22 15 30 5 8 24 47 41 85 17 39 45 97 61 130 16 33 29 67 29
76 0 9 7 22 15 29 8 7 15 21 15 32 0 11 6 32 13 46 8 15 21 42 30 60 9 19 17
41 17 51 0 9 7 26 15 37 8 10 15 28 15 39 0 11 7 29 15 39 8 11 15 28 15 37 0
10 7 31 15 48 8 17 22 45 30 62 8 17 15 37 15 44 0 7 7 27 15 44 8 17 22 45
30 62 8 17 15 39 15 49 0 22 20 39 57 49 35 10 43 6 43 -22z"/>
<path d="M11773 18777 c-12 -7 -28 -24 -34 -40 -34 -81 86 -135 126 -57 20 39
20 44 -16 79 -33 33 -41 35 -76 18z"/>
</g>
</svg>
